<svg width="225" height="45" viewBox="0 0 225 45" fill="none" xmlns="http://www.w3.org/2000/svg">
<path d="M9.78476 34.8576C7.68205 34.8576 5.80665 34.5166 4.15858 33.8347C2.53892 33.1243 1.23183 32.1582 0.237305 30.9363L3.98809 27.697C4.86896 28.6347 5.84928 29.3167 6.92905 29.7429C8.00882 30.1407 9.08859 30.3396 10.1684 30.3396C10.5946 30.3396 10.9782 30.297 11.3192 30.2118C11.6886 30.0981 12.0011 29.956 12.2569 29.7855C12.5126 29.5866 12.6973 29.3593 12.811 29.1036C12.953 28.8194 13.0241 28.5211 13.0241 28.2085C13.0241 27.5834 12.7683 27.0861 12.2569 26.7167C11.9727 26.5746 11.5323 26.4042 10.9356 26.2052C10.3389 25.9779 9.57165 25.7364 8.63395 25.4807C7.18478 25.1113 5.94873 24.685 4.92579 24.202C3.93126 23.6905 3.13564 23.1222 2.53892 22.4971C2.02745 21.9004 1.62964 21.261 1.34549 20.5791C1.08976 19.8687 0.961888 19.0873 0.961888 18.2348C0.961888 17.2119 1.18921 16.2884 1.64385 15.4644C2.09849 14.6119 2.72362 13.8873 3.51924 13.2906C4.34328 12.6939 5.28097 12.2393 6.33233 11.9267C7.38369 11.5857 8.49187 11.4152 9.65689 11.4152C10.8219 11.4152 11.9585 11.5573 13.0667 11.8414C14.1749 12.1256 15.1978 12.5376 16.1355 13.0775C17.1016 13.589 17.9399 14.1999 18.6503 14.9103L15.4109 18.4906C14.8995 18.0075 14.317 17.5671 13.6634 17.1693C13.0383 16.7715 12.3847 16.4589 11.7028 16.2316C11.0208 16.0042 10.4099 15.8906 9.87 15.8906C9.38695 15.8906 8.94652 15.9332 8.54871 16.0185C8.17931 16.1037 7.86674 16.2316 7.61101 16.4021C7.35527 16.5725 7.15637 16.7999 7.01429 17.084C6.90063 17.3398 6.8438 17.6239 6.8438 17.9365C6.8438 18.249 6.91484 18.5474 7.05692 18.8315C7.22741 19.1157 7.45473 19.3572 7.73888 19.5561C8.05144 19.7266 8.50608 19.9255 9.1028 20.1528C9.72793 20.3802 10.5662 20.6359 11.6175 20.92C12.9815 21.2894 14.1323 21.7015 15.07 22.1561C16.0361 22.6107 16.8033 23.1364 17.3716 23.7331C17.8546 24.2446 18.2098 24.8271 18.4371 25.4807C18.6645 26.1342 18.7781 26.8588 18.7781 27.6544C18.7781 29.0467 18.3803 30.297 17.5847 31.4052C16.8175 32.485 15.7519 33.3374 14.388 33.9626C13.0241 34.5593 11.4897 34.8576 9.78476 34.8576Z" fill="black"/>
<path d="M21.8996 34.4314V11.8841H27.952V34.4314H21.8996ZM24.8831 7.23821C23.7181 7.23821 22.8088 6.95406 22.1553 6.38575C21.5017 5.81745 21.175 5.00763 21.175 3.95627C21.175 2.99016 21.5017 2.20875 22.1553 1.61203C22.8373 0.986897 23.7465 0.674332 24.8831 0.674332C26.0482 0.674332 26.9574 0.97269 27.611 1.56941C28.2645 2.13771 28.5913 2.93333 28.5913 3.95627C28.5913 4.9508 28.2503 5.74642 27.5684 6.34313C26.9148 6.93985 26.0197 7.23821 24.8831 7.23821Z" fill="black"/>
<path d="M42.9834 44.2346C41.1933 44.2346 39.4315 43.9646 37.6982 43.4248C35.9649 42.9133 34.5583 42.2455 33.4786 41.4215L34.5441 39.2477L35.6097 37.074C36.178 37.4718 36.8316 37.827 37.5703 38.1396C38.3091 38.4521 39.0763 38.6937 39.872 38.8641C40.696 39.0346 41.5342 39.1199 42.3867 39.1199C43.8643 39.1199 45.0719 38.8926 46.0096 38.4379C46.9757 37.9833 47.7003 37.3013 48.1834 36.392C48.6664 35.5112 48.9079 34.3746 48.9079 32.9822V29.061L49.9309 29.2741C49.7604 30.2118 49.2915 31.0784 48.5243 31.874C47.7571 32.6413 46.791 33.2664 45.626 33.7494C44.461 34.2041 43.2676 34.4314 42.0457 34.4314C39.943 34.4314 38.0818 33.9483 36.4622 32.9822C34.8425 32.0161 33.5638 30.6806 32.6261 28.9757C31.6884 27.2708 31.2196 25.3102 31.2196 23.0938C31.2196 20.8206 31.6742 18.8173 32.5835 17.084C33.5212 15.3223 34.7857 13.9442 36.3769 12.9496C37.9966 11.9267 39.8293 11.4152 41.8752 11.4152C42.7277 11.4152 43.5375 11.5147 44.3047 11.7136C45.1003 11.9125 45.8249 12.1966 46.4785 12.566C47.1604 12.907 47.7571 13.3048 48.2686 13.7595C48.8085 14.1857 49.2489 14.6545 49.5899 15.166C49.9309 15.6775 50.144 16.1889 50.2292 16.7004L48.9932 17.0414L49.1637 11.8841H54.9603V32.7265C54.9603 34.5735 54.6904 36.2073 54.1505 37.6281C53.6106 39.0488 52.815 40.2423 51.7637 41.2084C50.7407 42.2029 49.4762 42.9559 47.9702 43.4674C46.4927 43.9789 44.8304 44.2346 42.9834 44.2346ZM43.1539 29.5724C44.3473 29.5724 45.3845 29.3025 46.2653 28.7626C47.1746 28.2227 47.8708 27.4697 48.3538 26.5036C48.8369 25.5375 49.0784 24.4009 49.0784 23.0938C49.0784 21.8151 48.8369 20.6927 48.3538 19.7266C47.8708 18.7321 47.1746 17.9649 46.2653 17.425C45.3845 16.8851 44.3473 16.6152 43.1539 16.6152C41.9889 16.6152 40.9517 16.8993 40.0424 17.4676C39.1616 18.0075 38.4796 18.7605 37.9966 19.7266C37.5135 20.6927 37.272 21.8151 37.272 23.0938C37.272 24.3725 37.5135 25.5091 37.9966 26.5036C38.4796 27.4697 39.1616 28.2227 40.0424 28.7626C40.9517 29.3025 41.9889 29.5724 43.1539 29.5724Z" fill="black"/>
<path d="M59.2689 34.4314V11.8841H65.0656L65.236 16.4873L64.0426 16.9988C64.3552 15.9758 64.9093 15.0523 65.7049 14.2283C66.5289 13.3759 67.5092 12.6939 68.6458 12.1824C69.7824 11.671 70.9759 11.4152 72.2261 11.4152C73.931 11.4152 75.3518 11.7562 76.4884 12.4382C77.6534 13.1201 78.5201 14.1573 79.0884 15.5496C79.6851 16.9135 79.9835 18.6042 79.9835 20.6217V34.4314H73.931V21.0905C73.931 20.0676 73.789 19.2151 73.5048 18.5332C73.2207 17.8512 72.7802 17.354 72.1835 17.0414C71.6152 16.7004 70.9048 16.5583 70.0524 16.6152C69.3704 16.6152 68.7311 16.7288 68.1344 16.9562C67.5661 17.1551 67.0688 17.4534 66.6426 17.8512C66.2448 18.249 65.918 18.7037 65.6623 19.2151C65.435 19.7266 65.3213 20.2807 65.3213 20.8774V34.4314H62.3377C61.6842 34.4314 61.1017 34.4314 60.5902 34.4314C60.0787 34.4314 59.6383 34.4314 59.2689 34.4314Z" fill="black"/>
<path d="M84.0356 34.4314V11.8841H89.8749L90.0028 16.1889L89.1077 16.3594C89.4202 15.6206 89.8323 14.9529 90.3437 14.3562C90.8552 13.7595 91.4519 13.248 92.1339 12.8218C92.8443 12.3955 93.583 12.0688 94.3503 11.8414C95.1175 11.5857 95.8847 11.4578 96.6519 11.4578C97.8169 11.4578 98.8682 11.6425 99.8059 12.0119C100.744 12.3813 101.539 12.9638 102.193 13.7595C102.846 14.5267 103.358 15.5496 103.727 16.8283L102.79 16.743L103.088 16.0611C103.457 15.3791 103.926 14.7682 104.494 14.2283C105.063 13.66 105.702 13.1769 106.412 12.7791C107.123 12.3529 107.862 12.0261 108.629 11.7988C109.396 11.5715 110.149 11.4578 110.888 11.4578C112.65 11.4578 114.113 11.813 115.278 12.5234C116.443 13.2054 117.31 14.2425 117.878 15.6349C118.475 17.0272 118.773 18.7321 118.773 20.7496V34.4314H112.721V21.1758C112.721 20.1528 112.579 19.3146 112.294 18.6611C112.01 18.0075 111.598 17.5245 111.058 17.2119C110.518 16.8709 109.822 16.7004 108.97 16.7004C108.316 16.7004 107.705 16.8141 107.137 17.0414C106.597 17.2403 106.114 17.5387 105.688 17.9365C105.29 18.3059 104.977 18.7463 104.75 19.2578C104.523 19.7692 104.409 20.3375 104.409 20.9627V34.4314H98.3568V21.1332C98.3568 20.1955 98.2005 19.3998 97.8879 18.7463C97.6038 18.0643 97.1918 17.5529 96.6519 17.2119C96.112 16.8709 95.4442 16.7004 94.6486 16.7004C93.9951 16.7004 93.3841 16.8141 92.8158 17.0414C92.276 17.2403 91.8071 17.5387 91.4093 17.9365C91.0115 18.3059 90.6847 18.7463 90.429 19.2578C90.2017 19.7692 90.088 20.3233 90.088 20.92V34.4314H84.0356Z" fill="black"/>
<path d="M125.777 44.2346L130.722 32.6413L130.807 36.1363L119.81 11.8841H126.672L132.171 24.8839C132.398 25.367 132.611 25.9353 132.81 26.5888C133.037 27.214 133.222 27.8249 133.364 28.4216L132.341 28.8478C132.512 28.3648 132.711 27.8107 132.938 27.1856C133.165 26.5604 133.393 25.8927 133.62 25.1823L138.351 11.8841H145.256L135.794 34.4314L131.915 44.2346H125.777Z" fill="black"/>
<path d="M155.215 34.8576C153.254 34.8576 151.493 34.3604 149.93 33.3658C148.367 32.3429 147.131 30.9648 146.222 29.2314C145.341 27.4697 144.9 25.438 144.9 23.1364C144.9 20.8916 145.341 18.8884 146.222 17.1266C147.131 15.3649 148.353 13.9726 149.887 12.9496C151.45 11.9267 153.226 11.4152 155.215 11.4152C156.266 11.4152 157.275 11.5857 158.241 11.9267C159.236 12.2393 160.117 12.6797 160.884 13.248C161.679 13.8163 162.319 14.4556 162.802 15.166C163.285 15.848 163.555 16.5725 163.612 17.3398L162.077 17.5955V2.89071H168.13V34.4314H162.418L162.162 29.2314L163.356 29.3593C163.299 30.0697 163.043 30.7517 162.589 31.4052C162.134 32.0587 161.523 32.6555 160.756 33.1953C160.017 33.7068 159.165 34.1188 158.199 34.4314C157.261 34.7155 156.266 34.8576 155.215 34.8576ZM156.579 29.8282C157.715 29.8282 158.71 29.544 159.562 28.9757C160.415 28.4074 161.083 27.626 161.566 26.6315C162.049 25.6369 162.29 24.4719 162.29 23.1364C162.29 21.8293 162.049 20.6785 161.566 19.684C161.083 18.6611 160.415 17.8796 159.562 17.3398C158.71 16.7715 157.715 16.4873 156.579 16.4873C155.442 16.4873 154.448 16.7715 153.595 17.3398C152.771 17.8796 152.118 18.6611 151.635 19.684C151.18 20.6785 150.953 21.8293 150.953 23.1364C150.953 24.4719 151.18 25.6369 151.635 26.6315C152.118 27.626 152.771 28.4074 153.595 28.9757C154.448 29.544 155.442 29.8282 156.579 29.8282Z" fill="black"/>
<path d="M182.81 34.8576C180.509 34.8576 178.449 34.3604 176.63 33.3658C174.84 32.3429 173.419 30.9506 172.368 29.1888C171.345 27.4271 170.833 25.4096 170.833 23.1364C170.833 20.8632 171.345 18.86 172.368 17.1266C173.419 15.3649 174.84 13.9726 176.63 12.9496C178.449 11.9267 180.509 11.4152 182.81 11.4152C185.084 11.4152 187.115 11.9267 188.905 12.9496C190.724 13.9726 192.145 15.3649 193.168 17.1266C194.191 18.86 194.702 20.8632 194.702 23.1364C194.702 25.4096 194.191 27.4271 193.168 29.1888C192.145 30.9506 190.724 32.3429 188.905 33.3658C187.115 34.3604 185.084 34.8576 182.81 34.8576ZM182.81 29.5724C183.919 29.5724 184.913 29.3025 185.794 28.7626C186.675 28.1943 187.357 27.4271 187.84 26.461C188.351 25.4665 188.607 24.3583 188.607 23.1364C188.607 21.8862 188.351 20.778 187.84 19.8119C187.357 18.8173 186.675 18.0501 185.794 17.5102C184.913 16.9419 183.919 16.6578 182.81 16.6578C181.674 16.6578 180.665 16.9419 179.784 17.5102C178.903 18.0785 178.207 18.8458 177.696 19.8119C177.184 20.778 176.943 21.8862 176.971 23.1364C176.943 24.3583 177.184 25.4665 177.696 26.461C178.207 27.4271 178.903 28.1943 179.784 28.7626C180.665 29.3025 181.674 29.5724 182.81 29.5724Z" fill="black"/>
<path d="M207.354 34.8576C205.194 34.8576 203.262 34.3462 201.557 33.3232C199.852 32.3003 198.503 30.9079 197.508 29.1462C196.542 27.3845 196.059 25.3812 196.059 23.1364C196.059 20.92 196.542 18.931 197.508 17.1693C198.503 15.3791 199.852 13.9726 201.557 12.9496C203.262 11.9267 205.194 11.4152 207.354 11.4152C209.371 11.4152 211.218 11.7846 212.895 12.5234C214.571 13.2622 215.878 14.2851 216.816 15.5922L213.492 19.5987C213.094 19.0589 212.597 18.5758 212 18.1496C211.403 17.6949 210.75 17.3398 210.039 17.084C209.357 16.8283 208.647 16.7004 207.908 16.7004C206.743 16.7004 205.706 16.9846 204.797 17.5529C203.916 18.0928 203.22 18.8458 202.708 19.8119C202.197 20.778 201.941 21.8862 201.941 23.1364C201.941 24.3583 202.197 25.4522 202.708 26.4184C203.248 27.3561 203.973 28.1233 204.882 28.72C205.791 29.2883 206.814 29.5724 207.951 29.5724C208.689 29.5724 209.386 29.473 210.039 29.2741C210.693 29.0467 211.304 28.72 211.872 28.2938C212.469 27.8675 213.009 27.3561 213.492 26.7593L216.774 30.7659C215.807 31.9877 214.472 32.9822 212.767 33.7494C211.062 34.4882 209.258 34.8576 207.354 34.8576Z" fill="black"/>
<path d="M9.78476 34.8576C7.68205 34.8576 5.80665 34.5166 4.15858 33.8347C2.53892 33.1243 1.23183 32.1582 0.237305 30.9363L3.98809 27.697C4.86896 28.6347 5.84928 29.3167 6.92905 29.7429C8.00882 30.1407 9.08859 30.3396 10.1684 30.3396C10.5946 30.3396 10.9782 30.297 11.3192 30.2118C11.6886 30.0981 12.0011 29.956 12.2569 29.7855C12.5126 29.5866 12.6973 29.3593 12.811 29.1036C12.953 28.8194 13.0241 28.5211 13.0241 28.2085C13.0241 27.5834 12.7683 27.0861 12.2569 26.7167C11.9727 26.5746 11.5323 26.4042 10.9356 26.2052C10.3389 25.9779 9.57165 25.7364 8.63395 25.4807C7.18478 25.1113 5.94873 24.685 4.92579 24.202C3.93126 23.6905 3.13564 23.1222 2.53892 22.4971C2.02745 21.9004 1.62964 21.261 1.34549 20.5791C1.08976 19.8687 0.961888 19.0873 0.961888 18.2348C0.961888 17.2119 1.18921 16.2884 1.64385 15.4644C2.09849 14.6119 2.72362 13.8873 3.51924 13.2906C4.34328 12.6939 5.28097 12.2393 6.33233 11.9267C7.38369 11.5857 8.49187 11.4152 9.65689 11.4152C10.8219 11.4152 11.9585 11.5573 13.0667 11.8414C14.1749 12.1256 15.1978 12.5376 16.1355 13.0775C17.1016 13.589 17.9399 14.1999 18.6503 14.9103L15.4109 18.4906C14.8995 18.0075 14.317 17.5671 13.6634 17.1693C13.0383 16.7715 12.3847 16.4589 11.7028 16.2316C11.0208 16.0042 10.4099 15.8906 9.87 15.8906C9.38695 15.8906 8.94652 15.9332 8.54871 16.0185C8.17931 16.1037 7.86674 16.2316 7.61101 16.4021C7.35527 16.5725 7.15637 16.7999 7.01429 17.084C6.90063 17.3398 6.8438 17.6239 6.8438 17.9365C6.8438 18.249 6.91484 18.5474 7.05692 18.8315C7.22741 19.1157 7.45473 19.3572 7.73888 19.5561C8.05144 19.7266 8.50608 19.9255 9.1028 20.1528C9.72793 20.3802 10.5662 20.6359 11.6175 20.92C12.9815 21.2894 14.1323 21.7015 15.07 22.1561C16.0361 22.6107 16.8033 23.1364 17.3716 23.7331C17.8546 24.2446 18.2098 24.8271 18.4371 25.4807C18.6645 26.1342 18.7781 26.8588 18.7781 27.6544C18.7781 29.0467 18.3803 30.297 17.5847 31.4052C16.8175 32.485 15.7519 33.3374 14.388 33.9626C13.0241 34.5593 11.4897 34.8576 9.78476 34.8576Z" stroke="black"/>
<path d="M21.8996 34.4314V11.8841H27.952V34.4314H21.8996ZM24.8831 7.23821C23.7181 7.23821 22.8088 6.95406 22.1553 6.38575C21.5017 5.81745 21.175 5.00763 21.175 3.95627C21.175 2.99016 21.5017 2.20875 22.1553 1.61203C22.8373 0.986897 23.7465 0.674332 24.8831 0.674332C26.0482 0.674332 26.9574 0.97269 27.611 1.56941C28.2645 2.13771 28.5913 2.93333 28.5913 3.95627C28.5913 4.9508 28.2503 5.74642 27.5684 6.34313C26.9148 6.93985 26.0197 7.23821 24.8831 7.23821Z" stroke="black"/>
<path d="M42.9834 44.2346C41.1933 44.2346 39.4315 43.9646 37.6982 43.4248C35.9649 42.9133 34.5583 42.2455 33.4786 41.4215L34.5441 39.2477L35.6097 37.074C36.178 37.4718 36.8316 37.827 37.5703 38.1396C38.3091 38.4521 39.0763 38.6937 39.872 38.8641C40.696 39.0346 41.5342 39.1199 42.3867 39.1199C43.8643 39.1199 45.0719 38.8926 46.0096 38.4379C46.9757 37.9833 47.7003 37.3013 48.1834 36.392C48.6664 35.5112 48.9079 34.3746 48.9079 32.9822V29.061L49.9309 29.2741C49.7604 30.2118 49.2915 31.0784 48.5243 31.874C47.7571 32.6413 46.791 33.2664 45.626 33.7494C44.461 34.2041 43.2676 34.4314 42.0457 34.4314C39.943 34.4314 38.0818 33.9483 36.4622 32.9822C34.8425 32.0161 33.5638 30.6806 32.6261 28.9757C31.6884 27.2708 31.2196 25.3102 31.2196 23.0938C31.2196 20.8206 31.6742 18.8173 32.5835 17.084C33.5212 15.3223 34.7857 13.9442 36.3769 12.9496C37.9966 11.9267 39.8293 11.4152 41.8752 11.4152C42.7277 11.4152 43.5375 11.5147 44.3047 11.7136C45.1003 11.9125 45.8249 12.1966 46.4785 12.566C47.1604 12.907 47.7571 13.3048 48.2686 13.7595C48.8085 14.1857 49.2489 14.6545 49.5899 15.166C49.9309 15.6775 50.144 16.1889 50.2292 16.7004L48.9932 17.0414L49.1637 11.8841H54.9603V32.7265C54.9603 34.5735 54.6904 36.2073 54.1505 37.6281C53.6106 39.0488 52.815 40.2423 51.7637 41.2084C50.7407 42.2029 49.4762 42.9559 47.9702 43.4674C46.4927 43.9789 44.8304 44.2346 42.9834 44.2346ZM43.1539 29.5724C44.3473 29.5724 45.3845 29.3025 46.2653 28.7626C47.1746 28.2227 47.8708 27.4697 48.3538 26.5036C48.8369 25.5375 49.0784 24.4009 49.0784 23.0938C49.0784 21.8151 48.8369 20.6927 48.3538 19.7266C47.8708 18.7321 47.1746 17.9649 46.2653 17.425C45.3845 16.8851 44.3473 16.6152 43.1539 16.6152C41.9889 16.6152 40.9517 16.8993 40.0424 17.4676C39.1616 18.0075 38.4796 18.7605 37.9966 19.7266C37.5135 20.6927 37.272 21.8151 37.272 23.0938C37.272 24.3725 37.5135 25.5091 37.9966 26.5036C38.4796 27.4697 39.1616 28.2227 40.0424 28.7626C40.9517 29.3025 41.9889 29.5724 43.1539 29.5724Z" stroke="black"/>
<path d="M59.2689 34.4314V11.8841H65.0656L65.236 16.4873L64.0426 16.9988C64.3552 15.9758 64.9093 15.0523 65.7049 14.2283C66.5289 13.3759 67.5092 12.6939 68.6458 12.1824C69.7824 11.671 70.9759 11.4152 72.2261 11.4152C73.931 11.4152 75.3518 11.7562 76.4884 12.4382C77.6534 13.1201 78.5201 14.1573 79.0884 15.5496C79.6851 16.9135 79.9835 18.6042 79.9835 20.6217V34.4314H73.931V21.0905C73.931 20.0676 73.789 19.2151 73.5048 18.5332C73.2207 17.8512 72.7802 17.354 72.1835 17.0414C71.6152 16.7004 70.9048 16.5583 70.0524 16.6152C69.3704 16.6152 68.7311 16.7288 68.1344 16.9562C67.5661 17.1551 67.0688 17.4534 66.6426 17.8512C66.2448 18.249 65.918 18.7037 65.6623 19.2151C65.435 19.7266 65.3213 20.2807 65.3213 20.8774V34.4314H62.3377C61.6842 34.4314 61.1017 34.4314 60.5902 34.4314C60.0787 34.4314 59.6383 34.4314 59.2689 34.4314Z" stroke="black"/>
<path d="M84.0356 34.4314V11.8841H89.8749L90.0028 16.1889L89.1077 16.3594C89.4202 15.6206 89.8323 14.9529 90.3437 14.3562C90.8552 13.7595 91.4519 13.248 92.1339 12.8218C92.8443 12.3955 93.583 12.0688 94.3503 11.8414C95.1175 11.5857 95.8847 11.4578 96.6519 11.4578C97.8169 11.4578 98.8682 11.6425 99.8059 12.0119C100.744 12.3813 101.539 12.9638 102.193 13.7595C102.846 14.5267 103.358 15.5496 103.727 16.8283L102.79 16.743L103.088 16.0611C103.457 15.3791 103.926 14.7682 104.494 14.2283C105.063 13.66 105.702 13.1769 106.412 12.7791C107.123 12.3529 107.862 12.0261 108.629 11.7988C109.396 11.5715 110.149 11.4578 110.888 11.4578C112.65 11.4578 114.113 11.813 115.278 12.5234C116.443 13.2054 117.31 14.2425 117.878 15.6349C118.475 17.0272 118.773 18.7321 118.773 20.7496V34.4314H112.721V21.1758C112.721 20.1528 112.579 19.3146 112.294 18.6611C112.01 18.0075 111.598 17.5245 111.058 17.2119C110.518 16.8709 109.822 16.7004 108.97 16.7004C108.316 16.7004 107.705 16.8141 107.137 17.0414C106.597 17.2403 106.114 17.5387 105.688 17.9365C105.29 18.3059 104.977 18.7463 104.75 19.2578C104.523 19.7692 104.409 20.3375 104.409 20.9627V34.4314H98.3568V21.1332C98.3568 20.1955 98.2005 19.3998 97.8879 18.7463C97.6038 18.0643 97.1918 17.5529 96.6519 17.2119C96.112 16.8709 95.4442 16.7004 94.6486 16.7004C93.9951 16.7004 93.3841 16.8141 92.8158 17.0414C92.276 17.2403 91.8071 17.5387 91.4093 17.9365C91.0115 18.3059 90.6847 18.7463 90.429 19.2578C90.2017 19.7692 90.088 20.3233 90.088 20.92V34.4314H84.0356Z" stroke="black"/>
<path d="M125.777 44.2346L130.722 32.6413L130.807 36.1363L119.81 11.8841H126.672L132.171 24.8839C132.398 25.367 132.611 25.9353 132.81 26.5888C133.037 27.214 133.222 27.8249 133.364 28.4216L132.341 28.8478C132.512 28.3648 132.711 27.8107 132.938 27.1856C133.165 26.5604 133.393 25.8927 133.62 25.1823L138.351 11.8841H145.256L135.794 34.4314L131.915 44.2346H125.777Z" stroke="black"/>
<path d="M155.215 34.8576C153.254 34.8576 151.493 34.3604 149.93 33.3658C148.367 32.3429 147.131 30.9648 146.222 29.2314C145.341 27.4697 144.9 25.438 144.9 23.1364C144.9 20.8916 145.341 18.8884 146.222 17.1266C147.131 15.3649 148.353 13.9726 149.887 12.9496C151.45 11.9267 153.226 11.4152 155.215 11.4152C156.266 11.4152 157.275 11.5857 158.241 11.9267C159.236 12.2393 160.117 12.6797 160.884 13.248C161.679 13.8163 162.319 14.4556 162.802 15.166C163.285 15.848 163.555 16.5725 163.612 17.3398L162.077 17.5955V2.89071H168.13V34.4314H162.418L162.162 29.2314L163.356 29.3593C163.299 30.0697 163.043 30.7517 162.589 31.4052C162.134 32.0587 161.523 32.6555 160.756 33.1953C160.017 33.7068 159.165 34.1188 158.199 34.4314C157.261 34.7155 156.266 34.8576 155.215 34.8576ZM156.579 29.8282C157.715 29.8282 158.71 29.544 159.562 28.9757C160.415 28.4074 161.083 27.626 161.566 26.6315C162.049 25.6369 162.29 24.4719 162.29 23.1364C162.29 21.8293 162.049 20.6785 161.566 19.684C161.083 18.6611 160.415 17.8796 159.562 17.3398C158.71 16.7715 157.715 16.4873 156.579 16.4873C155.442 16.4873 154.448 16.7715 153.595 17.3398C152.771 17.8796 152.118 18.6611 151.635 19.684C151.18 20.6785 150.953 21.8293 150.953 23.1364C150.953 24.4719 151.18 25.6369 151.635 26.6315C152.118 27.626 152.771 28.4074 153.595 28.9757C154.448 29.544 155.442 29.8282 156.579 29.8282Z" stroke="black"/>
<path d="M182.81 34.8576C180.509 34.8576 178.449 34.3604 176.63 33.3658C174.84 32.3429 173.419 30.9506 172.368 29.1888C171.345 27.4271 170.833 25.4096 170.833 23.1364C170.833 20.8632 171.345 18.86 172.368 17.1266C173.419 15.3649 174.84 13.9726 176.63 12.9496C178.449 11.9267 180.509 11.4152 182.81 11.4152C185.084 11.4152 187.115 11.9267 188.905 12.9496C190.724 13.9726 192.145 15.3649 193.168 17.1266C194.191 18.86 194.702 20.8632 194.702 23.1364C194.702 25.4096 194.191 27.4271 193.168 29.1888C192.145 30.9506 190.724 32.3429 188.905 33.3658C187.115 34.3604 185.084 34.8576 182.81 34.8576ZM182.81 29.5724C183.919 29.5724 184.913 29.3025 185.794 28.7626C186.675 28.1943 187.357 27.4271 187.84 26.461C188.351 25.4665 188.607 24.3583 188.607 23.1364C188.607 21.8862 188.351 20.778 187.84 19.8119C187.357 18.8173 186.675 18.0501 185.794 17.5102C184.913 16.9419 183.919 16.6578 182.81 16.6578C181.674 16.6578 180.665 16.9419 179.784 17.5102C178.903 18.0785 178.207 18.8458 177.696 19.8119C177.184 20.778 176.943 21.8862 176.971 23.1364C176.943 24.3583 177.184 25.4665 177.696 26.461C178.207 27.4271 178.903 28.1943 179.784 28.7626C180.665 29.3025 181.674 29.5724 182.81 29.5724Z" stroke="black"/>
<path d="M207.354 34.8576C205.194 34.8576 203.262 34.3462 201.557 33.3232C199.852 32.3003 198.503 30.9079 197.508 29.1462C196.542 27.3845 196.059 25.3812 196.059 23.1364C196.059 20.92 196.542 18.931 197.508 17.1693C198.503 15.3791 199.852 13.9726 201.557 12.9496C203.262 11.9267 205.194 11.4152 207.354 11.4152C209.371 11.4152 211.218 11.7846 212.895 12.5234C214.571 13.2622 215.878 14.2851 216.816 15.5922L213.492 19.5987C213.094 19.0589 212.597 18.5758 212 18.1496C211.403 17.6949 210.75 17.3398 210.039 17.084C209.357 16.8283 208.647 16.7004 207.908 16.7004C206.743 16.7004 205.706 16.9846 204.797 17.5529C203.916 18.0928 203.22 18.8458 202.708 19.8119C202.197 20.778 201.941 21.8862 201.941 23.1364C201.941 24.3583 202.197 25.4522 202.708 26.4184C203.248 27.3561 203.973 28.1233 204.882 28.72C205.791 29.2883 206.814 29.5724 207.951 29.5724C208.689 29.5724 209.386 29.473 210.039 29.2741C210.693 29.0467 211.304 28.72 211.872 28.2938C212.469 27.8675 213.009 27.3561 213.492 26.7593L216.774 30.7659C215.807 31.9877 214.472 32.9822 212.767 33.7494C211.062 34.4882 209.258 34.8576 207.354 34.8576Z" stroke="black"/>
<circle cx="220.625" cy="23.1704" r="4.37489" fill="#8305FF"/>
</svg>
